<svg xmlns="http://www.w3.org/2000/svg" fill="#e31419" viewBox="0 0 64 64">
  <path d="M24.66 0c3.5 3.1 6.6 7 7.78 11.66.4 1.95.4 3.5-.4 5.45-.4 1.55-1.17 3.1-1.94 5.05a10.8 10.8 0 00.4 7.78c1.16 2.33 1.55 5.06 1.55 8.16-.4 3.1-2.33 5.05-5.44 5.05-1.95 0-3.9-.4-5.83-1.16-3.9-1.95-5.84-4.67-6.23-8.94-.4-5.84 1.95-10.5 6.22-14 1.56-1.55 3.1-3.1 4.28-5.05 2.33-4.28 1.95-8.56.4-12.83-.4-.4-.4-.78-.78-1.17zM40.6 13.22l-1.16 4.28a14.68 14.68 0 000 5.83c.4 2.33 1.16 4.28 3.1 6.22 1.55 1.16 3.1 2.72 4.66 3.89 4.67 4.27 5.06 9.33 3.5 14.77-1.16 3.89-4.27 5.44-8.16 6.6a7.87 7.87 0 01-8.94-4.66c-1.17-2.34-1.17-4.67.4-6.6 1.94-3.1 2.33-6.6 1.16-10.11L34 28.77a9 9 0 01.4-7.77c1.55-3.1 3.88-5.45 6.22-7.78zm6.6 43.93c-.4.4-.4.78-.77 1.17-2.72 3.1-5.84 4.66-10.11 5.44a23 23 0 01-14.39-2.72c-3.88-1.95-6.6-5.44-8.16-9.72a17.32 17.32 0 01-1.17-8.94c0-.4 0-.78.4-.78 0 0 .4 0 .4.4a15 15 0 0010.11 5.05c1.17-.4 2.33-.4 3.5-.4.78 0 1.17.4 1.17 1.17.4.78.4 1.55.78 2.33 1.55 4.28 4.66 6.6 9.33 7.78 2.33.4 4.66.4 7-.78h1.94c0-.4 0 0 0 0z"/>
</svg>