<svg xmlns="http://www.w3.org/2000/svg" viewBox="0 0 510 510">
  <g fill="#f7d15c">
    <path d="M68.2 31.9V478A32 32 0 00100 510h310a32 32 0 0031.8-31.9V117.4A37 37 0 00431 91.3l-80.5-80.5a37 37 0 00-26-10.8H100a32 32 0 00-32 31.9z"/>
    <path fill="#f7be49" d="M440.7 108.4l.4 1.5h-97.7c-6.9 0-12.5-5.6-12.5-12.5V.6l2.4.5c7.3 1.6 13.9 5.3 19.2 10.6L430 89.3c5.3 5.3 9 12 10.6 19.1z"/>
  </g>
  <g fill="#ebeff0">
    <path d="M150.9 254.4h203.8c5 0 9.1-4 9.1-9.2v-22.4c0-5-4-9.2-9.1-9.2H150.9c-5.1 0-9.2 4.1-9.2 9.2v22.4c0 5.1 4 9.2 9.2 9.2zM150.9 318.2h203.8c5 0 9.1-4.2 9.1-9.2v-22.5c0-5-4-9.2-9.1-9.2H150.9c-5.1 0-9.2 4.2-9.2 9.2V309c0 5 4 9.2 9.2 9.2zM150.9 381.9h203.8c5 0 9.1-4.2 9.1-9.2v-22.5c0-5-4-9.1-9.1-9.1H150.9c-5.1 0-9.2 4-9.2 9.1v22.5c0 5 4 9.2 9.2 9.2zM148.3 445.6h103.2c3.7 0 6.6-3 6.6-6.7v-27.5c0-3.7-3-6.6-6.6-6.6H148.3c-3.6 0-6.6 3-6.6 6.6V439c0 3.7 3 6.7 6.6 6.7z"/>
  </g>
</svg>