<svg xmlns="http://www.w3.org/2000/svg" viewBox="0 0 512 512">
  <path fill="#feb137" d="M456.2 430.6H58.4A20.4 20.4 0 0138 410.2V76.7c0-11.3 9.2-20.5 20.4-20.5h397.8c11.3 0 20.5 9.2 20.5 20.5v333.5c0 11.3-9.2 20.4-20.5 20.4z"/>
  <path fill="#f6ab31" d="M456.2 56.2h-39.6c11.2 0 20.4 9.2 20.4 20.5v333.5c0 11.3-9.2 20.4-20.4 20.4h39.6c11.3 0 20.5-9.2 20.5-20.4V76.7c0-11.3-9.2-20.5-20.5-20.5z"/>
  <path fill="#ffd15b" d="M491.6 110.3H240l-50.2-74c-3.7-5.6-10-9-16.9-9H20.4A20.4 20.4 0 000 47.7v416.6c0 11.2 9.1 20.4 20.4 20.4h471.2c11.3 0 20.4-9.2 20.4-20.5V130.8c0-11.2-9.1-20.4-20.4-20.4z"/>
  <path fill="#ffc344" d="M491.6 110.3h-39.7c11.3 0 20.4 9.2 20.4 20.4v333.6c0 11.2-9.1 20.4-20.4 20.4h39.7c11.3 0 20.4-9.2 20.4-20.5V130.8c0-11.2-9.1-20.4-20.4-20.4z"/>
</svg>