<?xml version="1.0" encoding="UTF-8" standalone="no"?>
<svg
   xmlns:dc="http://purl.org/dc/elements/1.1/"
   xmlns:cc="http://creativecommons.org/ns#"
   xmlns:rdf="http://www.w3.org/1999/02/22-rdf-syntax-ns#"
   xmlns:svg="http://www.w3.org/2000/svg"
   xmlns="http://www.w3.org/2000/svg"
   xmlns:sodipodi="http://sodipodi.sourceforge.net/DTD/sodipodi-0.dtd"
   xmlns:inkscape="http://www.inkscape.org/namespaces/inkscape"
   viewBox="0 0 1000 1000"
   version="1.1"
   id="svg10"
   sodipodi:docname="backdriveb2_logo.svg"
   width="1000"
   height="1000"
   inkscape:version="1.0.2 (394de47547, 2021-03-26)">
  <metadata
     id="metadata14">
    <rdf:RDF>
      <cc:Work
         rdf:about="">
        <dc:format>image/svg+xml</dc:format>
        <dc:type
           rdf:resource="http://purl.org/dc/dcmitype/StillImage" />
        <dc:title></dc:title>
      </cc:Work>
    </rdf:RDF>
  </metadata>
  <sodipodi:namedview
     pagecolor="#ffffff"
     bordercolor="#666666"
     borderopacity="1"
     objecttolerance="10"
     gridtolerance="10"
     guidetolerance="10"
     inkscape:pageopacity="0"
     inkscape:pageshadow="2"
     inkscape:window-width="1920"
     inkscape:window-height="1163"
     id="namedview12"
     showgrid="false"
     inkscape:zoom="0.83984375"
     inkscape:cx="515.62171"
     inkscape:cy="483.75034"
     inkscape:window-x="0"
     inkscape:window-y="0"
     inkscape:window-maximized="1"
     inkscape:current-layer="svg10" />
  <!-- Font Awesome Pro 5.15.3 by @fontawesome - https://fontawesome.com License - https://fontawesome.com/license (Commercial License) -->
  <defs
     id="defs4">
    <style
       id="style2">.fa-secondary{opacity:.4}</style>
  </defs>
  <g
     id="g1192"
     transform="matrix(1.1284402,0,0,1.1284402,-59.075367,-63.381196)">
    <g
       id="g120"
       transform="matrix(1.7184383,0,0,1.7184383,94.094275,60.509469)"
       style="fill:#000119;fill-opacity:1">
      <g
         id="g6"
         style="fill:#000119;fill-opacity:1">
        <g
           id="g4"
           style="fill:#000119;fill-opacity:1">
          <path
             d="m 11.020843,137 207.528077,-0.72713 c 0,0 -19.98239,19.74099 -29.43095,30.0319 -7.63244,8.31289 -11.22173,15.1049 -17.26066,30.59286 L 11.020843,197 Z"
             fill="#384949"
             id="path2-3"
             sodipodi:nodetypes="ccsccc"
             style="opacity:1;fill:#636162;fill-opacity:1;stroke-width:1.05192" />
        </g>
      </g>
      <g
         id="g14"
         style="fill:#000119;fill-opacity:1">
        <g
           id="g12"
           style="fill:#000119;fill-opacity:1">
          <path
             d="m 11.021092,317 138.120278,0.40408 c 0,0 -1.70126,27.31926 -2.00557,34.95288 -0.77099,11.38525 -0.39367,13.47688 -0.091,23.22846 l -136.023748,1.41453 z"
             fill="#384949"
             id="path10"
             sodipodi:nodetypes="cccccc"
             style="opacity:1;fill:#636162;fill-opacity:1;stroke-width:1.07526" />
        </g>
      </g>
      <g
         id="g20"
         style="fill:#000119;fill-opacity:1">
        <path
           d="m -23.11239,0 v 152 l 225.44714,0.1478 c 18.29202,-18.42852 52.30841,-48.10724 59.308,-76.72673 C 268.29351,42.691169 253.71679,0 253.71679,0 Z"
           fill="#4a696f"
           id="path18"
           sodipodi:nodetypes="cccccc"
           style="fill:#918f90;fill-opacity:1;stroke-width:1.04295" />
      </g>
      <g
         id="g30"
         style="fill:#000119;fill-opacity:1">
        <g
           id="g28"
           style="fill:#000119;fill-opacity:1">
          <g
             id="g26"
             style="fill:#000119;fill-opacity:1" />
        </g>
      </g>
      <g
         id="g36"
         style="fill:#000119;fill-opacity:1">
        <g
           id="g34"
           style="fill:#000119;fill-opacity:1" />
      </g>
      <g
         id="g44"
         style="fill:#000119;fill-opacity:1">
        <g
           id="g42"
           style="fill:#000119;fill-opacity:1">
          <g
             id="g40"
             style="fill:#000119;fill-opacity:1" />
        </g>
      </g>
      <g
         id="g50"
         style="fill:#000119;fill-opacity:1">
        <g
           id="g48"
           style="fill:#000119;fill-opacity:1" />
      </g>
      <g
         id="g54"
         style="fill:#000119;fill-opacity:1">
        <path
           d="m -22.873637,182 v 150 l 171.076897,-0.19279 c 2.616,-33.06577 7.12942,-60.75507 13.71627,-99.25228 3.64596,-21.37617 16.34721,-50.59349 16.34721,-50.59349 z"
           fill="#4a696f"
           id="path52"
           sodipodi:nodetypes="cccccc"
           style="fill:#918f90;fill-opacity:1;stroke-width:1.06134" />
      </g>
      <g
         id="g64"
         style="fill:#000119;fill-opacity:1">
        <g
           id="g62"
           style="fill:#000119;fill-opacity:1">
          <g
             id="g60"
             style="fill:#000119;fill-opacity:1" />
        </g>
      </g>
      <g
         id="g70"
         style="fill:#000119;fill-opacity:1">
        <g
           id="g68"
           style="fill:#000119;fill-opacity:1" />
      </g>
      <g
         id="g78"
         style="fill:#000119;fill-opacity:1">
        <g
           id="g76"
           style="fill:#000119;fill-opacity:1">
          <g
             id="g74"
             style="fill:#000119;fill-opacity:1" />
        </g>
      </g>
      <g
         id="g84"
         style="fill:#000119;fill-opacity:1">
        <g
           id="g82"
           style="fill:#000119;fill-opacity:1" />
      </g>
      <g
         id="g88"
         style="fill:#000119;fill-opacity:1">
        <path
           d="m -22.86813,362 v 150 l 260.2803,0.11101 c 0,0 -18.44093,-6.47144 -38.37408,-24.72993 -13.63078,-12.48561 -20.25702,-21.5894 -28.87026,-38.57095 -22.37299,-44.10978 -23.74904,-86.77169 -23.74904,-86.77169 z"
           fill="#4a696f"
           id="path86"
           sodipodi:nodetypes="cccsscc"
           style="fill:#918f90;fill-opacity:1;stroke-width:1.04807" />
      </g>
      <g
         id="g98"
         style="fill:#000119;fill-opacity:1">
        <g
           id="g96"
           style="fill:#000119;fill-opacity:1">
          <g
             id="g94"
             style="fill:#000119;fill-opacity:1" />
        </g>
      </g>
      <g
         id="g106"
         style="fill:#000119;fill-opacity:1">
        <g
           id="g104"
           style="fill:#000119;fill-opacity:1">
          <g
             id="g102"
             style="fill:#000119;fill-opacity:1" />
        </g>
      </g>
      <g
         id="g114"
         style="fill:#000119;fill-opacity:1">
        <g
           id="g112"
           style="fill:#000119;fill-opacity:1">
          <g
             id="g110"
             style="fill:#000119;fill-opacity:1" />
        </g>
      </g>
      <g
         id="g118"
         style="fill:#000119;fill-opacity:1" />
    </g>
    <path
       d="m 565.98719,57.60093 c 48.3049,42.78433 91.08924,96.58218 107.31968,160.96571 5.52055,26.82992 5.52055,48.3049 -5.52056,75.12102 -5.52056,21.46118 -16.09244,42.78433 -26.82992,69.75226 -10.73749,32.19868 -10.73749,69.75228 5.52055,107.31968 16.10624,32.21247 21.44737,69.89029 21.44737,112.67463 -5.52054,42.78434 -32.19865,69.75227 -75.121,69.75227 -26.82992,0 -53.65984,-5.52056 -80.48976,-16.09244 -53.65984,-26.82991 -80.48976,-64.38352 -85.8447,-123.4121 -5.52056,-80.48976 26.82992,-144.87329 85.8447,-193.16438 21.46117,-21.46118 42.78433,-42.78434 59.02859,-69.75227 32.19865,-59.02859 26.82991,-118.04336 5.52055,-177.07195 -5.52055,-5.52056 -5.52055,-10.73748 -10.73748,-16.09243 z m 219.9943,182.45449 -16.09244,59.02859 a 202.60454,202.60454 0 0 0 0,80.48975 c 5.52057,32.19866 16.09244,59.02859 42.78434,85.84471 21.46118,16.09242 42.78434,37.53979 64.38353,53.65983 64.38353,59.02858 69.75221,128.76705 48.3049,203.90187 -16.09244,53.65984 -59.02858,75.12102 -112.67463,91.08924 -53.65983,10.73748 -101.95093,-16.09243 -123.4121,-64.38353 -16.09243,-32.19867 -16.09243,-64.38353 5.52056,-91.08924 26.82991,-42.78433 32.19866,-91.08923 16.09243,-139.50454 l -16.09243,-64.38352 c -16.09244,-37.5398 -10.73749,-75.12102 5.52056,-107.31968 21.46117,-42.78433 53.65983,-75.12101 85.84469,-107.31968 z m 91.08923,606.29546 c -5.52056,5.52056 -5.52056,10.73748 -10.73748,16.09243 -37.53981,42.78433 -80.48976,64.38352 -139.50455,75.12102 -69.75226,10.7375 -139.50454,-5.52057 -198.53312,-37.53982 -53.65983,-26.82992 -91.08924,-75.12101 -112.67463,-134.14959 -16.09242,-37.5398 -21.46117,-80.48976 -16.09242,-123.41211 0,-5.52056 0,-10.73749 5.52057,-10.73749 0,0 5.52054,0 5.52054,5.52056 37.53982,42.78434 85.84471,64.38353 139.50454,69.75227 16.09244,-5.52056 32.19867,-5.52056 48.3049,-5.52056 10.73749,0 16.09244,5.52056 16.09244,16.09243 5.52056,10.7375 5.52056,21.46117 10.73749,32.19867 21.46116,59.02858 64.38351,91.08923 128.76704,107.31967 32.19867,5.52057 64.38353,5.52057 96.5822,-10.73748 h 26.82991 c 0,-5.52057 0,0 0,0 z"
       id="path2"
       style="fill:#b42432;fill-opacity:1;stroke-width:13.8014" />
  </g>
</svg>
