<?xml version="1.0" encoding="UTF-8" standalone="no"?>
<svg
   xmlns:dc="http://purl.org/dc/elements/1.1/"
   xmlns:cc="http://creativecommons.org/ns#"
   xmlns:rdf="http://www.w3.org/1999/02/22-rdf-syntax-ns#"
   xmlns:svg="http://www.w3.org/2000/svg"
   xmlns="http://www.w3.org/2000/svg"
   xmlns:sodipodi="http://sodipodi.sourceforge.net/DTD/sodipodi-0.dtd"
   xmlns:inkscape="http://www.inkscape.org/namespaces/inkscape"
   viewBox="0 0 1000 1000"
   version="1.1"
   id="svg10"
   sodipodi:docname="backdriveb2_logo.svg"
   width="1000"
   height="1000"
   inkscape:version="1.0.2 (394de47547, 2021-03-26)">
  <metadata
     id="metadata14">
    <rdf:RDF>
      <cc:Work
         rdf:about="">
        <dc:format>image/svg+xml</dc:format>
        <dc:type
           rdf:resource="http://purl.org/dc/dcmitype/StillImage" />
        <dc:title></dc:title>
      </cc:Work>
    </rdf:RDF>
  </metadata>
  <sodipodi:namedview
     pagecolor="#ffffff"
     bordercolor="#666666"
     borderopacity="1"
     objecttolerance="10"
     gridtolerance="10"
     guidetolerance="10"
     inkscape:pageopacity="0"
     inkscape:pageshadow="2"
     inkscape:window-width="1920"
     inkscape:window-height="1163"
     id="namedview12"
     showgrid="false"
     inkscape:zoom="0.83984375"
     inkscape:cx="365.07896"
     inkscape:cy="555.09681"
     inkscape:window-x="0"
     inkscape:window-y="0"
     inkscape:window-maximized="1"
     inkscape:current-layer="svg10" />
  <!-- Font Awesome Pro 5.15.3 by @fontawesome - https://fontawesome.com License - https://fontawesome.com/license (Commercial License) -->
  <defs
     id="defs4">
    <style
       id="style2">.fa-secondary{opacity:.4}</style>
  </defs>
  <g
     id="g1192"
     transform="matrix(1.1284402,0,0,1.1284402,-81.629582,-62.799583)">
    <g
       id="g120"
       transform="matrix(1.7184383,0,0,1.7184383,94.094275,60.509469)"
       style="fill:#000119;fill-opacity:1">
      <g
         id="g6"
         style="fill:#000119;fill-opacity:1">
        <g
           id="g4"
           style="fill:#000119;fill-opacity:1">
          <path
             d="m 31,137 187.54892,-0.72713 c 0,0 -18.05864,19.74099 -26.59757,30.0319 -6.89765,8.31289 -11.18104,16.10667 -18.37504,30.23149 L 31,197 Z"
             fill="#384949"
             id="path2-3"
             sodipodi:nodetypes="ccsccc"
             style="opacity:1;fill:#636162;fill-opacity:1" />
        </g>
      </g>
      <g
         id="g14"
         style="fill:#000119;fill-opacity:1">
        <g
           id="g12"
           style="fill:#000119;fill-opacity:1">
          <path
             d="m 31,317 120.80796,-0.007 c 0,0 -1.46793,19.14526 -1.73113,26.77888 -0.13463,3.90464 -0.89843,10.30045 -0.5689,17.10465 0.21728,4.48649 -0.32069,11.1915 -0.40523,16.12338 H 31 Z"
             fill="#384949"
             id="path10"
             sodipodi:nodetypes="ccssccc"
             style="opacity:1;fill:#636162;fill-opacity:1" />
        </g>
      </g>
      <g
         id="g20"
         style="fill:#000119;fill-opacity:1">
        <path
           d="m 0,0 v 152 l 203.96618,-0.22977 c 16.81634,-18.42852 51.3819,-47.72967 57.81681,-76.34916 C 267.89721,42.691169 254.49644,0 254.49644,0 Z"
           fill="#4a696f"
           id="path18"
           sodipodi:nodetypes="cccccc"
           style="fill:#918f90;fill-opacity:1" />
      </g>
      <g
         id="g30"
         style="fill:#000119;fill-opacity:1">
        <g
           id="g28"
           style="fill:#000119;fill-opacity:1">
          <g
             id="g26"
             style="fill:#000119;fill-opacity:1" />
        </g>
      </g>
      <g
         id="g36"
         style="fill:#000119;fill-opacity:1">
        <g
           id="g34"
           style="fill:#000119;fill-opacity:1" />
      </g>
      <g
         id="g44"
         style="fill:#000119;fill-opacity:1">
        <g
           id="g42"
           style="fill:#000119;fill-opacity:1">
          <g
             id="g40"
             style="fill:#000119;fill-opacity:1" />
        </g>
      </g>
      <g
         id="g50"
         style="fill:#000119;fill-opacity:1">
        <g
           id="g48"
           style="fill:#000119;fill-opacity:1" />
      </g>
      <g
         id="g54"
         style="fill:#000119;fill-opacity:1">
        <path
           d="m 0,182 v 150 l 150.6961,-0.10111 c 2.43046,-33.48565 6.56001,-72.29955 12.26774,-99.69781 4.82046,-22.5568 17.92529,-50.23324 17.92529,-50.23324 z"
           fill="#4a696f"
           id="path52"
           sodipodi:nodetypes="cccccc"
           style="fill:#918f90;fill-opacity:1" />
      </g>
      <g
         id="g64"
         style="fill:#000119;fill-opacity:1">
        <g
           id="g62"
           style="fill:#000119;fill-opacity:1">
          <g
             id="g60"
             style="fill:#000119;fill-opacity:1" />
        </g>
      </g>
      <g
         id="g70"
         style="fill:#000119;fill-opacity:1">
        <g
           id="g68"
           style="fill:#000119;fill-opacity:1" />
      </g>
      <g
         id="g78"
         style="fill:#000119;fill-opacity:1">
        <g
           id="g76"
           style="fill:#000119;fill-opacity:1">
          <g
             id="g74"
             style="fill:#000119;fill-opacity:1" />
        </g>
      </g>
      <g
         id="g84"
         style="fill:#000119;fill-opacity:1">
        <g
           id="g82"
           style="fill:#000119;fill-opacity:1" />
      </g>
      <g
         id="g88"
         style="fill:#000119;fill-opacity:1">
        <path
           d="m 0,362 v 150 l 232.26302,0.0755 c 0,0 -19.9017,-11.16421 -34.51287,-24.49796 -17.08506,-15.59135 -20.15556,-22.16669 -27.99677,-39.14824 -20.36764,-44.10978 -20.16934,-86.22666 -20.16934,-86.22666 z"
           fill="#4a696f"
           id="path86"
           sodipodi:nodetypes="cccsscc"
           style="fill:#918f90;fill-opacity:1" />
      </g>
      <g
         id="g98"
         style="fill:#000119;fill-opacity:1">
        <g
           id="g96"
           style="fill:#000119;fill-opacity:1">
          <g
             id="g94"
             style="fill:#000119;fill-opacity:1" />
        </g>
      </g>
      <g
         id="g106"
         style="fill:#000119;fill-opacity:1">
        <g
           id="g104"
           style="fill:#000119;fill-opacity:1">
          <g
             id="g102"
             style="fill:#000119;fill-opacity:1" />
        </g>
      </g>
      <g
         id="g114"
         style="fill:#000119;fill-opacity:1">
        <g
           id="g112"
           style="fill:#000119;fill-opacity:1">
          <g
             id="g110"
             style="fill:#000119;fill-opacity:1" />
        </g>
      </g>
      <g
         id="g118"
         style="fill:#000119;fill-opacity:1" />
    </g>
    <path
       d="m 565.98719,57.60093 c 48.3049,42.78433 91.08924,96.58218 107.31968,160.96571 5.52055,26.82992 5.52055,48.3049 -5.52056,75.12102 -5.52056,21.46118 -16.09244,42.78433 -26.82992,69.75226 -10.73749,32.19868 -10.73749,69.75228 5.52055,107.31968 16.10624,32.21247 21.44737,69.89029 21.44737,112.67463 -5.52054,42.78434 -32.19865,69.75227 -75.121,69.75227 -26.82992,0 -53.65984,-5.52056 -80.48976,-16.09244 -53.65984,-26.82991 -80.48976,-64.38352 -85.8447,-123.4121 -5.52056,-80.48976 26.82992,-144.87329 85.8447,-193.16438 21.46117,-21.46118 42.78433,-42.78434 59.02859,-69.75227 32.19865,-59.02859 26.82991,-118.04336 5.52055,-177.07195 -5.52055,-5.52056 -5.52055,-10.73748 -10.73748,-16.09243 z m 219.9943,182.45449 -16.09244,59.02859 a 202.60454,202.60454 0 0 0 0,80.48975 c 5.52057,32.19866 16.09244,59.02859 42.78434,85.84471 21.46118,16.09242 42.78434,37.53979 64.38353,53.65983 64.38353,59.02858 69.75221,128.76705 48.3049,203.90187 -16.09244,53.65984 -59.02858,75.12102 -112.67463,91.08924 -53.65983,10.73748 -101.95093,-16.09243 -123.4121,-64.38353 -16.09243,-32.19867 -16.09243,-64.38353 5.52056,-91.08924 26.82991,-42.78433 32.19866,-91.08923 16.09243,-139.50454 l -16.09243,-64.38352 c -16.09244,-37.5398 -10.73749,-75.12102 5.52056,-107.31968 21.46117,-42.78433 53.65983,-75.12101 85.84469,-107.31968 z m 91.08923,606.29546 c -5.52056,5.52056 -5.52056,10.73748 -10.73748,16.09243 -37.53981,42.78433 -80.48976,64.38352 -139.50455,75.12102 -69.75226,10.7375 -139.50454,-5.52057 -198.53312,-37.53982 -53.65983,-26.82992 -91.08924,-75.12101 -112.67463,-134.14959 -16.09242,-37.5398 -21.46117,-80.48976 -16.09242,-123.41211 0,-5.52056 0,-10.73749 5.52057,-10.73749 0,0 5.52054,0 5.52054,5.52056 37.53982,42.78434 85.84471,64.38353 139.50454,69.75227 16.09244,-5.52056 32.19867,-5.52056 48.3049,-5.52056 10.73749,0 16.09244,5.52056 16.09244,16.09243 5.52056,10.7375 5.52056,21.46117 10.73749,32.19867 21.46116,59.02858 64.38351,91.08923 128.76704,107.31967 32.19867,5.52057 64.38353,5.52057 96.5822,-10.73748 h 26.82991 c 0,-5.52057 0,0 0,0 z"
       id="path2"
       style="fill:#b42432;fill-opacity:1;stroke-width:13.8014" />
  </g>
</svg>
